<?xml version="1.0" encoding="utf-8"?>
<!-- Generator: Adobe Illustrator 18.0.0, SVG Export Plug-In . SVG Version: 6.00 Build 0)  -->
<!DOCTYPE svg PUBLIC "-//W3C//DTD SVG 1.1//EN" "http://www.w3.org/Graphics/SVG/1.1/DTD/svg11.dtd">
<svg version="1.1" id="Capa_1" xmlns="http://www.w3.org/2000/svg" xmlns:xlink="http://www.w3.org/1999/xlink" x="0px" y="0px"
	 viewBox="231 231 50 50" enable-background="new 231 231 50 50" xml:space="preserve">
<g>
	<g>
		<polygon fill="#FFFFFF" points="244.1,257.8 246.1,257.8 246.1,268.6 248,268.6 248,257.8 250,257.8 250,256.1 244.1,256.1 		"/>
		<path fill="#FFFFFF" d="M260,259.2c-0.6,0-1.2,0.3-1.7,1v-4.1h-1.7v12.5h1.7v-0.9c0.6,0.7,1.1,1,1.7,1c0.7,0,1.1-0.4,1.3-1
			c0.1-0.4,0.2-1,0.2-1.9v-3.7c0-0.9-0.1-1.5-0.2-1.9C261.1,259.5,260.7,259.2,260,259.2z M259.8,265.9c0,0.8-0.2,1.3-0.7,1.3
			c-0.3,0-0.6-0.1-0.8-0.4v-5.7c0.3-0.3,0.6-0.4,0.8-0.4c0.5,0,0.7,0.4,0.7,1.3V265.9z"/>
		<path fill="#FFFFFF" d="M253.4,266.4c-0.4,0.5-0.7,0.8-1.1,0.8c-0.2,0-0.4-0.1-0.4-0.4c0-0.1,0-0.3,0-0.7v-6.8h-1.7v7.4
			c0,0.7,0.1,1.1,0.1,1.4c0.2,0.5,0.5,0.7,1.1,0.7c0.6,0,1.3-0.4,1.9-1.1v1h1.7v-9.3h-1.7V266.4z"/>
		<path fill="#FFFFFF" d="M254.9,250.7c0.5,0,0.8-0.4,0.8-1.3v-4c0-0.9-0.3-1.3-0.8-1.3c-0.5,0-0.8,0.4-0.8,1.3v4
			C254.1,250.2,254.3,250.7,254.9,250.7z"/>
		<path fill="#FFFFFF" d="M256,231c-13.8,0-25,11.2-25,25s11.2,25,25,25s25-11.2,25-25S269.8,231,256,231z M258.8,242.7h1.7v6.9
			c0,0.4,0,0.6,0,0.7c0,0.3,0.2,0.4,0.4,0.4c0.3,0,0.7-0.3,1.1-0.8v-7.2h1.7v9.4H262v-1c-0.7,0.8-1.3,1.2-1.9,1.2
			c-0.5,0-0.9-0.2-1.1-0.7c-0.1-0.3-0.2-0.7-0.2-1.4V242.7L258.8,242.7z M252.3,245.8c0-1,0.2-1.7,0.5-2.2c0.5-0.6,1.1-1,2-1
			c0.9,0,1.5,0.3,2,1c0.4,0.5,0.5,1.2,0.5,2.2v3.3c0,1-0.2,1.7-0.5,2.2c-0.5,0.6-1.1,1-2,1c-0.8,0-1.5-0.3-2-1
			c-0.4-0.5-0.5-1.2-0.5-2.2V245.8z M247.8,239.5l1.3,5l1.3-5h1.9l-2.3,7.5v5.1h-1.9V247c-0.2-0.9-0.5-2.2-1.2-4
			c-0.4-1.2-0.8-2.3-1.2-3.5C245.8,239.5,247.8,239.5,247.8,239.5z M269.5,269.4c-0.3,1.5-1.6,2.6-3,2.7c-3.5,0.4-7,0.4-10.4,0.4
			c-3.5,0-7,0-10.4-0.4c-1.5-0.2-2.7-1.3-3-2.7c-0.5-2.1-0.5-4.4-0.5-6.6s0-4.5,0.5-6.6c0.3-1.5,1.6-2.6,3-2.7
			c3.5-0.4,7-0.4,10.4-0.4c3.5,0,7,0,10.4,0.4c1.5,0.2,2.7,1.3,3,2.7c0.5,2.1,0.5,4.4,0.5,6.6S269.9,267.3,269.5,269.4z"/>
		<path fill="#FFFFFF" d="M265.4,259.2c-0.9,0-1.5,0.3-2,1c-0.4,0.5-0.5,1.2-0.5,2.2v3.3c0,1,0.2,1.7,0.5,2.2c0.5,0.6,1.2,1,2,1
			c0.9,0,1.6-0.3,2-1c0.2-0.3,0.3-0.6,0.4-1c0-0.2,0-0.5,0-1.1v-0.2h-1.7c0,0.7,0,1.1,0,1.1c-0.1,0.5-0.3,0.7-0.8,0.7
			c-0.6,0-0.9-0.4-0.9-1.3v-1.7h3.4v-1.9c0-1-0.2-1.7-0.5-2.2C266.9,259.5,266.2,259.2,265.4,259.2z M266.2,262.8h-1.7V262
			c0-0.9,0.3-1.3,0.8-1.3c0.6,0,0.8,0.4,0.8,1.3V262.8z"/>
	</g>
</g>
</svg>
