<?xml version="1.0" encoding="utf-8"?>
<!-- Generator: Adobe Illustrator 18.0.0, SVG Export Plug-In . SVG Version: 6.00 Build 0)  -->
<!DOCTYPE svg PUBLIC "-//W3C//DTD SVG 1.1//EN" "http://www.w3.org/Graphics/SVG/1.1/DTD/svg11.dtd">
<svg version="1.1" id="Capa_1" xmlns="http://www.w3.org/2000/svg" xmlns:xlink="http://www.w3.org/1999/xlink" x="0px" y="0px"
	 viewBox="231 231 50 50" enable-background="new 231 231 50 50" xml:space="preserve">
<g>
	<g>
		<g>
			<path fill="#FFFFFF" d="M256,261c2.8,0,5-2.2,5-5c0-1.1-0.4-2.1-0.9-2.9c-0.9-1.3-2.4-2.1-4.1-2.1c-1.7,0-3.1,0.8-4.1,2.1
				c-0.6,0.8-0.9,1.8-0.9,2.9C251,258.8,253.2,261,256,261z"/>
			<polygon fill="#FFFFFF" points="266.9,249.9 266.9,245.7 266.9,245.1 266.3,245.1 262.1,245.1 262.1,249.9 			"/>
			<path fill="#FFFFFF" d="M256,231c-13.8,0-25,11.2-25,25c0,13.8,11.2,25,25,25c13.8,0,25-11.2,25-25C281,242.2,269.8,231,256,231z
				 M270.2,253.1v11.6c0,3-2.5,5.5-5.5,5.5h-17.4c-3,0-5.5-2.5-5.5-5.5v-11.6v-5.8c0-3,2.5-5.5,5.5-5.5h17.4c3,0,5.5,2.5,5.5,5.5
				V253.1z"/>
			<path fill="#FFFFFF" d="M263.8,256c0,4.3-3.5,7.8-7.8,7.8s-7.8-3.5-7.8-7.8c0-1,0.2-2,0.6-2.9h-4.2v11.6c0,1.5,1.2,2.7,2.7,2.7
				h17.4c1.5,0,2.7-1.2,2.7-2.7v-11.6h-4.2C263.6,254,263.8,255,263.8,256z"/>
		</g>
	</g>
</g>
</svg>
