<?xml version="1.0" encoding="utf-8"?>
<!-- Generator: Adobe Illustrator 18.0.0, SVG Export Plug-In . SVG Version: 6.00 Build 0)  -->
<!DOCTYPE svg PUBLIC "-//W3C//DTD SVG 1.1//EN" "http://www.w3.org/Graphics/SVG/1.1/DTD/svg11.dtd">
<svg version="1.1" id="Capa_1" xmlns="http://www.w3.org/2000/svg" xmlns:xlink="http://www.w3.org/1999/xlink" x="0px" y="0px"
	 viewBox="231 231 50 50" enable-background="new 231 231 50 50" xml:space="preserve">
<g>
	<g>
		<path fill="#FFFFFF" d="M256,231c-13.8,0-25,11.2-25,25c0,13.8,11.2,25,25,25c13.8,0,25-11.2,25-25C281,242.2,269.8,231,256,231z
			 M267.2,250.3c0,0.2,0,0.5,0,0.7c0,7.6-5.8,16.4-16.4,16.4c-3.2,0-6.3-0.9-8.8-2.6c0.5,0.1,0.9,0.1,1.4,0.1c2.7,0,5.2-0.9,7.1-2.5
			c-2.5,0-4.6-1.7-5.4-4c0.4,0.1,0.7,0.1,1.1,0.1c0.5,0,1-0.1,1.5-0.2c-2.6-0.5-4.6-2.9-4.6-5.6c0,0,0,0,0-0.1
			c0.8,0.4,1.7,0.7,2.6,0.7c-1.5-1-2.6-2.8-2.6-4.8c0-1.1,0.3-2,0.8-2.9c2.8,3.5,7.1,5.8,11.9,6c-0.1-0.4-0.1-0.9-0.1-1.3
			c0-3.2,2.6-5.8,5.8-5.8c1.7,0,3.1,0.7,4.2,1.8c1.3-0.3,2.5-0.7,3.7-1.4c-0.4,1.3-1.3,2.5-2.5,3.2c1.2-0.1,2.3-0.4,3.3-0.9
			C269.3,248.5,268.3,249.5,267.2,250.3z"/>
	</g>
</g>
</svg>
