<?xml version="1.0" encoding="utf-8"?>
<!-- Generator: Adobe Illustrator 18.0.0, SVG Export Plug-In . SVG Version: 6.00 Build 0)  -->
<!DOCTYPE svg PUBLIC "-//W3C//DTD SVG 1.1//EN" "http://www.w3.org/Graphics/SVG/1.1/DTD/svg11.dtd">
<svg version="1.1" id="Calque_1" xmlns="http://www.w3.org/2000/svg" xmlns:xlink="http://www.w3.org/1999/xlink" x="0px" y="0px"
	 viewBox="0 0 50 50" enable-background="new 0 0 50 50" xml:space="preserve">
<path fill="#FFFFFF" d="M25,0C11.2,0,0,11.2,0,25s11.2,25,25,25s25-11.2,25-25S38.8,0,25,0z M40.1,28.9c-2.1,6.8-8,11-15.1,11
	c0,0,0,0,0,0c-7.1,0-13.1-4.1-15.1-10.9C9.6,28,10.1,27.2,11,27c0.9-0.3,1.8,0.3,2.1,1.2l0,0.1c0.8,2.8,2.5,5,4.7,6.5
	c2.1,1.4,4.6,2.1,7.2,2.1c0,0,0,0,0,0c2.6,0,5.2-0.7,7.2-2.1c2.2-1.6,3.9-3.8,4.7-6.6c0.3-0.9,1.2-1.5,2.1-1.2
	C39.9,27.2,40.4,28,40.1,28.9z"/>
</svg>
