<?xml version="1.0" encoding="utf-8"?>
<!-- Generator: Adobe Illustrator 18.0.0, SVG Export Plug-In . SVG Version: 6.00 Build 0)  -->
<!DOCTYPE svg PUBLIC "-//W3C//DTD SVG 1.1//EN" "http://www.w3.org/Graphics/SVG/1.1/DTD/svg11.dtd">
<svg version="1.1" id="Capa_1" xmlns="http://www.w3.org/2000/svg" xmlns:xlink="http://www.w3.org/1999/xlink" x="0px" y="0px"
	 viewBox="231 231 50 50" enable-background="new 231 231 50 50" xml:space="preserve">
<g>
	<g>
		<path fill="#FFFFFF" d="M256,231c-13.8,0-25,11.2-25,25c0,13.8,11.2,25,25,25c13.8,0,25-11.2,25-25C281,242.2,269.8,231,256,231z
			 M262.2,256.9h-4.1c0,6.5,0,14.5,0,14.5h-6c0,0,0-7.9,0-14.5h-2.9v-5.1h2.9v-3.3c0-2.4,1.1-6.1,6.1-6.1l4.5,0v5c0,0-2.7,0-3.2,0
			s-1.3,0.3-1.3,1.4v3h4.6L262.2,256.9z"/>
	</g>
</g>
</svg>
