<?xml version="1.0" encoding="utf-8"?>
<!-- Generator: Adobe Illustrator 18.0.0, SVG Export Plug-In . SVG Version: 6.00 Build 0)  -->
<!DOCTYPE svg PUBLIC "-//W3C//DTD SVG 1.1//EN" "http://www.w3.org/Graphics/SVG/1.1/DTD/svg11.dtd">
<svg version="1.1" id="Capa_1" xmlns="http://www.w3.org/2000/svg" xmlns:xlink="http://www.w3.org/1999/xlink" x="0px" y="0px"
	 viewBox="231 231 50 50" enable-background="new 231 231 50 50" xml:space="preserve">
<g>
	<path fill="#FFFFFF" d="M256,231c-13.8,0-25,11.2-25,25c0,13.8,11.2,25,25,25c13.8,0,25-11.2,25-25C281,242.2,269.8,231,256,231z
		 M258.4,264.4c-2.3-0.2-3.2-1.3-5-2.4c-1,5.1-2.2,10.1-5.7,12.6c-1.1-7.8,1.6-13.6,2.9-19.8c-2.1-3.6,0.3-10.8,4.8-9.1
		c5.5,2.2-4.8,13.4,2.1,14.8c7.3,1.5,10.2-12.6,5.7-17.2c-6.5-6.6-18.9-0.2-17.4,9.3c0.4,2.3,2.8,3,1,6.2c-4.2-0.9-5.4-4.2-5.2-8.6
		c0.3-7.2,6.4-12.2,12.6-12.9c7.8-0.9,15.2,2.9,16.2,10.2C271.5,256,266.8,265.1,258.4,264.4z"/>
</g>
</svg>
